<?xml version="1.0" encoding="utf-8"?>
<!-- Generator: Adobe Illustrator 17.1.0, SVG Export Plug-In . SVG Version: 6.00 Build 0)  -->
<!DOCTYPE svg PUBLIC "-//W3C//DTD SVG 1.1//EN" "http://www.w3.org/Graphics/SVG/1.1/DTD/svg11.dtd">
<svg version="1.1" id="Layer_1" xmlns:ev="http://www.w3.org/2001/xml-events"
	 xmlns="http://www.w3.org/2000/svg" xmlns:xlink="http://www.w3.org/1999/xlink" x="0px" y="0px" viewBox="4.9 0 126 126"
	 enable-background="new 4.9 0 126 126" xml:space="preserve">
<path fill="#FFFFFF" d="M116.3,111.4c-9.7,9.7-29.1,14.6-48.5,14.6s-38.7-4.9-48.5-14.6C0,92,0,34,19.4,14.6C29.1,4.9,48.5,0,67.9,0
	s38.7,4.9,48.5,14.6C135.7,34,135.7,92,116.3,111.4z M112.5,18.4C103.5,9.5,85.7,5,67.9,5C50,5,32.2,9.5,23.3,18.4
	c-17.9,17.9-17.9,71.3,0,89.2C32.2,116.5,50,121,67.9,121c17.8,0,35.7-4.5,44.6-13.4C130.4,89.7,130.4,36.3,112.5,18.4z"/>
</svg>
