<?xml version="1.0" encoding="utf-8"?><!DOCTYPE svg PUBLIC "-//W3C//DTD SVG 1.1//EN" "http://www.w3.org/Graphics/SVG/1.1/DTD/svg11.dtd"><svg version="1.1" baseProfile="full" xmlns="http://www.w3.org/2000/svg" xmlns:xlink="http://www.w3.org/1999/xlink" xmlns:ev="http://www.w3.org/2001/xml-events"   height="126px"   width="136px" ><path fill="rgb( 48, 167, 183 )" d="M67.852,0 C48.484,0 29.115,4.852 19.41,14.558 C0,33.968 0,92.032 19.41,111.442 C29.115,121.147 48.484,125.999 67.852,125.999 C87.22,125.999 106.588,121.147 116.294,111.442 C135.704,92.032 135.704,33.968 116.294,14.558 C106.588,4.852 87.22,0 67.852,0 C67.852,0 67.852,0 67.852,0 Z "/><path fill="rgb( 255, 255, 255 )" d="M96.55,83.758 C95.285,85.254 93.656,85.976 91.693,85.977 C82.8,85.981 73.907,85.972 65.014,85.972 C58.1,85.972 51.185,85.937 44.271,85.998 C41.102,86.026 38.482,84.029 37.947,81.116 C37.937,81.062 37.887,81.014 37.855,80.963 C37.855,69.312 37.855,57.661 37.855,46.01 C37.894,45.919 37.95,45.832 37.97,45.737 C38.275,44.335 38.999,43.193 40.131,42.278 C40.97,41.599 41.975,41.308 42.98,40.999 C59.563,40.999 76.147,40.999 92.73,40.999 C92.843,41.04 92.954,41.094 93.07,41.12 C94.473,41.437 95.626,42.129 96.548,43.221 C97.242,44.045 97.538,45.028 97.855,46.01 C97.855,57.661 97.855,69.312 97.855,80.963 C97.537,81.947 97.245,82.936 96.55,83.758 ZM39.856,79.623 C39.857,80.377 39.926,81.13 40.295,81.815 C41.117,83.34 42.456,84.01 44.177,84.013 C47.446,84.018 50.716,84.013 53.985,84.013 C66.48,84.012 78.975,84.014 91.47,84.011 C94.162,84.01 95.845,82.369 95.847,79.749 C95.854,71.035 95.857,62.32 95.854,53.606 C95.854,52.601 95.989,52.733 94.961,52.732 C85.923,52.727 76.885,52.729 67.847,52.73 C58.684,52.73 49.521,52.733 40.359,52.722 C39.94,52.721 39.846,52.845 39.846,53.236 C39.856,62.031 39.851,70.827 39.856,79.623 ZM95.851,47.027 C95.783,44.586 94.095,42.974 91.579,42.957 C88.935,42.938 86.29,42.953 83.646,42.954 C75.941,42.956 68.237,42.958 60.533,42.958 C55.077,42.958 49.622,42.945 44.166,42.956 C41.805,42.961 40.297,44.227 39.93,46.51 C39.732,47.741 39.923,48.991 39.843,50.228 C39.811,50.713 39.995,50.78 40.44,50.78 C49.581,50.767 58.722,50.77 67.864,50.77 C67.864,50.773 67.864,50.775 67.864,50.778 C73.09,50.778 78.316,50.779 83.543,50.778 C87.478,50.777 91.414,50.769 95.349,50.776 C95.696,50.777 95.871,50.738 95.86,50.325 C95.83,49.226 95.882,48.126 95.851,47.027 ZM57.847,48.813 C56.763,48.82 55.867,47.945 55.863,46.875 C55.859,45.804 56.74,44.928 57.832,44.917 C58.931,44.907 59.841,45.769 59.848,46.825 C59.854,47.936 58.979,48.806 57.847,48.813 ZM51.92,48.815 C50.75,48.825 49.865,47.974 49.862,46.833 C49.858,45.813 50.751,44.925 51.79,44.916 C52.961,44.905 53.845,45.757 53.849,46.897 C53.852,47.918 52.959,48.805 51.92,48.815 ZM45.866,48.813 C44.769,48.818 43.864,47.952 43.863,46.894 C43.861,45.784 44.741,44.919 45.875,44.917 C46.958,44.915 47.848,45.795 47.847,46.867 C47.846,47.936 46.959,48.808 45.866,48.813 ZM50.295,62.377 C49.662,61.753 49.733,60.98 50.439,60.655 C50.983,60.405 51.402,60.673 51.772,61.033 C53.173,62.395 54.57,63.762 55.968,65.128 C56.453,65.602 56.946,66.07 57.42,66.555 C57.987,67.136 58.018,67.653 57.456,68.209 C55.526,70.12 53.575,72.01 51.635,73.911 C51.415,74.128 51.14,74.194 50.908,74.233 C50.096,74.219 49.635,73.439 50.016,72.796 C50.138,72.589 50.311,72.404 50.485,72.233 C51.996,70.747 53.501,69.255 55.037,67.795 C55.387,67.463 55.345,67.297 55.022,66.988 C53.432,65.466 51.861,63.923 50.295,62.377 ZM64.984,66.426 C66.941,66.414 68.898,66.422 70.855,66.422 C70.855,66.42 70.855,66.418 70.855,66.417 C72.791,66.417 74.726,66.416 76.662,66.417 C77.36,66.417 77.835,66.813 77.841,67.397 C77.847,67.97 77.422,68.366 76.726,68.368 C72.792,68.379 68.857,68.38 64.923,68.376 C64.326,68.376 63.875,67.936 63.869,67.398 C63.863,66.824 64.288,66.431 64.984,66.426 Z "/></svg>