<?xml version="1.0" encoding="utf-8"?><!DOCTYPE svg PUBLIC "-//W3C//DTD SVG 1.1//EN" "http://www.w3.org/Graphics/SVG/1.1/DTD/svg11.dtd"><svg version="1.1" baseProfile="full" xmlns="http://www.w3.org/2000/svg" xmlns:xlink="http://www.w3.org/1999/xlink" xmlns:ev="http://www.w3.org/2001/xml-events"   height="126px"   width="136px" ><path fill="rgb( 48, 167, 183 )" d="M67.852,0 C48.483,0 29.115,4.852 19.41,14.558 C0,33.968 0,92.032 19.41,111.442 C29.115,121.147 48.483,125.999 67.852,125.999 C87.22,125.999 106.588,121.147 116.294,111.442 C135.704,92.032 135.704,33.968 116.294,14.558 C106.588,4.852 87.22,0 67.852,0 C67.852,0 67.852,0 67.852,0 Z "/><path fill="rgb( 255, 255, 255 )" d="M74.808,32.999 C75.338,33.407 75.453,33.942 75.451,34.587 C75.433,42.064 75.439,49.542 75.443,57.02 C75.443,57.176 75.387,57.345 75.545,57.559 C76.186,56.425 76.807,55.326 77.427,54.226 C78.587,52.167 79.74,50.106 80.91,48.052 C81.076,47.761 81.106,47.556 80.852,47.286 C79.167,45.5 79.326,42.75 80.809,40.851 C81.364,40.14 81.916,39.426 82.437,38.691 C83.287,37.491 83.321,36.25 82.535,35.006 C82.233,34.529 82.065,34.044 82.452,33.562 C82.844,33.072 83.387,33.145 83.916,33.306 C87.761,34.481 90.011,37.012 90.647,40.906 C90.988,42.99 90.683,44.967 89.562,46.791 C88.829,47.984 87.789,48.803 86.379,49.104 C86.044,49.176 85.878,49.322 85.759,49.632 C84.625,52.59 83.479,55.543 82.328,58.494 C82.207,58.807 82.1,59.009 82.622,59.025 C83.266,59.044 83.596,59.463 83.612,60.166 C83.629,60.916 83.642,61.667 83.606,62.415 C83.585,62.862 83.687,63.017 84.19,63.013 C85.377,63.003 86.565,62.946 87.744,63.23 C91.176,64.056 93.485,66.675 93.817,70.179 C94.182,74.046 91.983,77.482 88.438,78.595 C87.076,79.023 85.673,79.045 84.269,78.982 C83.734,78.957 83.596,79.109 83.603,79.631 C83.633,82.026 83.621,84.421 83.615,86.816 C83.604,90.484 81.063,92.987 77.326,92.991 C69.938,92.998 62.55,92.999 55.163,92.99 C51.514,92.986 48.885,90.406 48.882,86.84 C48.875,77.988 48.876,69.136 48.873,60.283 C48.873,59.414 49.138,59.14 50.24,58.931 C49.495,57.469 48.828,55.979 47.998,54.581 C47.043,52.973 46.638,51.253 46.465,49.434 C46.31,47.799 46.06,46.172 45.855,44.542 C45.816,44.233 45.766,43.92 45.91,43.621 C46.212,42.995 46.817,42.848 47.586,43.271 C49.459,44.299 51.283,45.418 53.194,46.37 C54.39,46.966 55.095,47.836 55.659,48.987 C57.23,52.192 58.894,55.355 60.521,58.534 C60.559,58.609 60.599,58.682 60.632,58.758 C60.706,58.93 60.819,59.049 61.022,58.983 C61.221,58.919 61.139,58.737 61.14,58.608 C61.146,56.9 61.143,55.192 61.143,53.484 C61.144,47.069 61.15,40.654 61.135,34.239 C61.133,33.633 61.42,33.277 61.905,32.999 C66.206,32.999 70.507,32.999 74.808,32.999 ZM66.293,61.001 C66.293,60.999 66.293,60.996 66.293,60.993 C61.396,60.993 56.5,61.002 51.604,60.981 C51.061,60.978 50.891,61.083 50.896,61.653 C50.927,65.527 50.914,69.401 50.914,73.276 C50.914,77.775 50.895,82.274 50.919,86.773 C50.931,89.299 52.664,90.997 55.199,91 C62.522,91.011 69.845,91.011 77.168,91.002 C79.959,90.999 81.581,89.378 81.583,86.611 C81.588,78.28 81.581,69.948 81.594,61.616 C81.595,61.155 81.516,60.984 80.981,60.987 C76.085,61.011 71.189,61.001 66.293,61.001 ZM63.178,46.981 C63.18,46.981 63.182,46.981 63.184,46.981 C63.184,50.814 63.184,54.647 63.184,58.48 C63.184,58.74 63.097,59.015 63.56,59.012 C66.711,58.995 69.862,58.995 73.013,59.002 C73.326,59.003 73.408,58.897 73.405,58.606 C73.394,57.544 73.39,56.481 73.417,55.419 C73.427,55.031 73.254,54.98 72.923,54.987 C72.136,55.005 71.348,54.997 70.56,54.992 C69.802,54.986 69.34,54.614 69.335,54.015 C69.331,53.431 69.811,53.02 70.543,53.009 C71.331,52.997 72.119,52.988 72.906,53.013 C73.284,53.025 73.43,52.936 73.418,52.534 C73.389,51.513 73.39,50.492 73.418,49.472 C73.428,49.079 73.302,48.986 72.912,48.992 C71.465,49.013 70.017,48.997 68.569,48.992 C67.765,48.99 67.288,48.617 67.292,48.002 C67.296,47.401 67.788,47.012 68.576,47.007 C69.683,47 70.79,47.01 71.897,47.004 C73.449,46.996 73.432,46.993 73.42,45.458 C73.417,45.05 73.268,44.976 72.9,44.986 C72.092,45.008 71.282,45 70.473,44.99 C69.812,44.982 69.363,44.602 69.333,44.055 C69.303,43.492 69.766,43.04 70.439,43.011 C70.927,42.99 71.418,43.001 71.907,43.006 C73.461,43.021 73.446,43.023 73.418,41.511 C73.41,41.101 73.275,40.981 72.869,40.986 C71.443,41.006 70.016,40.995 68.59,40.995 C68.379,40.995 68.163,41.032 67.962,40.931 C67.506,40.703 67.215,40.362 67.311,39.836 C67.418,39.25 67.846,39.013 68.417,39.009 C69.907,38.998 71.397,38.984 72.887,39.007 C73.319,39.014 73.419,38.874 73.409,38.479 C73.385,37.521 73.379,36.562 73.42,35.605 C73.44,35.121 73.305,34.976 72.793,34.981 C69.77,35.006 66.747,35.004 63.724,34.984 C63.263,34.981 63.166,35.117 63.168,35.545 C63.185,39.357 63.178,43.169 63.178,46.981 ZM83.618,70.978 C83.617,70.978 83.617,70.978 83.616,70.978 C83.616,72.809 83.631,74.64 83.605,76.47 C83.598,76.919 83.743,77.05 84.18,77.013 C84.602,76.977 85.03,76.997 85.455,76.999 C88.955,77.015 91.306,75.107 91.738,71.734 C92.128,68.694 90.433,65.84 87.145,65.157 C86.156,64.952 85.156,65.028 84.16,64.984 C83.691,64.964 83.603,65.128 83.608,65.549 C83.631,67.358 83.618,69.168 83.618,70.978 ZM85.17,36.008 C85.156,36.185 85.134,36.282 85.142,36.378 C85.252,37.685 84.827,38.842 84.08,39.896 C83.572,40.614 83.024,41.306 82.499,42.013 C80.836,44.251 81.915,46.742 84.724,47.156 C86.119,47.361 87.177,46.866 87.863,45.651 C89.026,43.588 88.949,41.467 88.102,39.333 C87.54,37.914 86.571,36.826 85.17,36.008 ZM55.52,59.005 C55.52,59.004 55.52,59.002 55.52,59.001 C56.328,59.001 57.136,58.99 57.943,59.006 C58.302,59.013 58.461,58.996 58.245,58.58 C56.741,55.672 55.253,52.755 53.777,49.833 C53.618,49.518 53.498,49.512 53.224,49.695 C52.013,50.503 50.798,51.306 49.566,52.081 C49.229,52.293 49.231,52.477 49.392,52.789 C50.38,54.696 51.362,56.607 52.323,58.528 C52.509,58.901 52.744,59.031 53.161,59.014 C53.946,58.983 54.734,59.005 55.52,59.005 ZM77.185,59.005 C77.91,59.005 78.629,58.975 79.343,59.016 C79.807,59.043 80.008,58.874 80.166,58.458 C81.291,55.5 82.448,52.554 83.573,49.597 C83.642,49.417 84.012,49.127 83.519,48.95 C83.166,48.823 82.89,48.643 82.608,49.155 C80.916,52.229 79.178,55.279 77.459,58.339 C77.35,58.532 77.182,58.705 77.185,59.005 ZM52.032,48.067 C50.702,47.325 49.451,46.626 48.111,45.878 C48.289,47.281 48.454,48.556 48.608,49.832 C48.641,50.104 48.702,50.229 48.99,50.039 C49.976,49.394 50.967,48.757 52.032,48.067 Z "/></svg>