<?xml version="1.0" encoding="utf-8"?><!DOCTYPE svg PUBLIC "-//W3C//DTD SVG 1.1//EN" "http://www.w3.org/Graphics/SVG/1.1/DTD/svg11.dtd"><svg version="1.1" baseProfile="full" xmlns="http://www.w3.org/2000/svg" xmlns:xlink="http://www.w3.org/1999/xlink" xmlns:ev="http://www.w3.org/2001/xml-events"   height="126px"   width="136px" ><path fill="rgb( 48, 167, 183 )" d="M67.852,0 C48.484,0 29.115,4.852 19.41,14.558 C0,33.968 0,92.032 19.41,111.442 C29.115,121.147 48.484,125.999 67.852,125.999 C87.22,125.999 106.588,121.147 116.294,111.442 C135.704,92.032 135.704,33.968 116.294,14.558 C106.588,4.852 87.22,0 67.852,0 C67.852,0 67.852,0 67.852,0 Z "/><path fill="rgb( 255, 255, 255 )" d="M39.855,77.356 C40.134,76.317 40.443,75.296 41.14,74.429 C42.293,72.993 43.765,72.194 45.63,72.189 C49.409,72.177 53.188,72.178 56.966,72.193 C57.407,72.194 57.756,72.082 58.105,71.822 C61.563,69.254 63.064,65.923 62.355,61.624 C61.861,58.628 60.671,55.892 59.457,53.151 C58.64,51.308 57.7,49.506 57.22,47.537 C56.559,44.821 57.127,42.271 58.597,39.946 C60.445,37.026 63.263,35.584 66.636,35.127 C69.596,34.727 72.389,35.246 74.936,36.824 C77.611,38.481 79.081,40.915 79.631,43.974 C80.052,46.321 79.332,48.425 78.435,50.512 C77.284,53.192 75.948,55.799 75.085,58.595 C74.273,61.228 73.768,63.887 74.637,66.612 C75.392,68.98 76.986,70.698 78.995,72.09 C79.196,72.23 79.414,72.182 79.626,72.183 C83.305,72.186 86.987,72.257 90.664,72.163 C93.842,72.082 96.286,74.311 96.762,77.145 C96.775,77.219 96.823,77.286 96.855,77.356 C96.855,80.455 96.855,83.553 96.855,86.651 C96.468,87.137 95.962,87.323 95.348,87.234 C95.04,87.189 94.933,87.315 94.943,87.626 C94.964,88.272 94.949,88.92 94.949,89.566 C94.949,90.742 94.685,90.999 93.478,90.999 C84.831,90.999 76.185,90.999 67.539,90.999 C59.367,90.999 51.196,90.999 43.025,90.998 C42.1,90.998 41.773,90.679 41.762,89.77 C41.755,89.084 41.739,88.396 41.769,87.712 C41.787,87.319 41.656,87.187 41.269,87.238 C40.645,87.319 40.151,87.114 39.855,86.533 C39.855,83.475 39.855,80.415 39.855,77.356 ZM68.338,85.363 C68.338,85.362 68.338,85.361 68.338,85.36 C71.959,85.36 75.58,85.36 79.201,85.361 C84.286,85.361 89.371,85.359 94.456,85.369 C94.816,85.37 94.975,85.312 94.971,84.898 C94.949,82.683 94.989,80.467 94.952,78.252 C94.913,75.877 93.253,73.989 90.559,74.04 C87.038,74.107 83.514,73.996 79.995,74.088 C78.728,74.121 77.787,73.68 76.903,72.912 C76.695,72.731 76.482,72.554 76.277,72.37 C73.203,69.602 71.906,66.175 72.373,62.083 C72.713,59.109 73.758,56.351 74.953,53.636 C75.759,51.807 76.584,49.988 77.33,48.133 C78.641,44.876 77.201,40.835 74.629,38.896 C71.384,36.45 66.425,36.244 62.832,38.379 C59.609,40.293 58.008,44.746 59.374,48.109 C60.023,49.707 60.72,51.282 61.421,52.856 C62.651,55.614 63.812,58.393 64.263,61.409 C64.581,63.538 64.499,65.622 63.739,67.66 C62.798,70.183 61.053,72.053 58.887,73.595 C58.451,73.905 58.006,74.064 57.464,74.063 C53.625,74.05 49.787,74.053 45.948,74.059 C45.231,74.06 44.527,74.157 43.892,74.521 C42.388,75.381 41.773,76.741 41.755,78.395 C41.732,80.473 41.773,82.551 41.739,84.629 C41.73,85.191 41.824,85.382 42.458,85.38 C51.084,85.355 59.711,85.363 68.338,85.363 ZM68.371,87.234 C60.579,87.234 52.786,87.234 44.993,87.234 C43.636,87.234 43.656,87.234 43.637,88.587 C43.631,89.031 43.755,89.132 44.197,89.131 C50.902,89.118 57.607,89.127 64.311,89.127 C73.449,89.127 82.587,89.122 91.725,89.12 C93.064,89.12 93.016,89.12 93.073,87.842 C93.102,87.198 92.798,87.227 92.343,87.228 C84.352,87.236 76.362,87.234 68.371,87.234 Z "/></svg>